[[.........why be the same as everyone else when YOU can be UNiQUE.........]]             
          
General
Subtitles                                : Hardcoded for foreign parts only
Format                                   : MPEG-4
Format profile                           : Base Media
Codec ID                                 : isom
File size                                : 2.32 GiB
Duration                                 : 2h 17mn
Overall bit rate mode                    : Variable
Overall bit rate                         : 2 419 Kbps
Encoded date                             : UTC 2012-08-19 08:48:13

Video
ID                                       : 1
Format                                   : AVC
Format/Info                              : Advanced Video Codec
Format profile                           : High@L4.1
Format settings, CABAC                   : Yes
Format settings, ReFrames                : 3 frames
Codec ID                                 : avc1
Codec ID/Info                            : Advanced Video Coding
Duration                                 : 2h 17mn
Bit rate mode                            : Variable
Bit rate                                 : 2 071 Kbps
Maximum bit rate                         : 40.0 Mbps
Width                                    : 720 pixels
Height                                   : 384 pixels
Display aspect ratio                     : 1.85:1
Frame rate mode                          : Constant
Frame rate                               : 25.000 fps
Color space                              : YUV
Chroma subsampling                       : 4:2:0
Bit depth                                : 8 bits
Scan type                                : Progressive
Bits/(Pixel*Frame)                       : 0.300
Stream size                              : 1.98 GiB (86%)☺
Writing library                          : x264 core 125 r2208 d9d2288

Audio
ID                                       : 2
Format                                   : AAC
Format/Info                              : Advanced Audio Codec
Format profile                           : LC
Codec ID                                 : 40
Duration                                 : 2h 17mn
Bit rate mode                            : Variable
Bit rate                                 : 345 Kbps
Maximum bit rate                         : 429 Kbps
Channel(s)                               : 6 channels
Channel positions                        : Front: L C R, Side: L R, LFE
Sampling rate                            : 48.0 KHz
Compression mode                         : Lossy
Stream size                              : 338 MiB (14%)
Language                                 : English
Encoded date                             : UTC 2012-08-19 08:48:56

Source : x264 AC3-NYDIC - Thanks!                                     

Storyline
Nick Fury of S.H.I.E.L.D. brings together a team of super humans to form The Avengers to help save the Earth from Loki and his army.

iMDB: http://www.imdb.com/title/tt0848228/


Poster:

 
http://i.imgur.com/a5vk4.jpg


Screenshots:

 
http://i.imgur.com/zXo0g.jpg


ENJOY!